<svg width="95" height="32" viewBox="0 0 95 32" fill="none" xmlns="http://www.w3.org/2000/svg">
<rect width="95" height="32" rx="6" fill="#1877F2"/>
<path d="M16 10.832V12.64H11.344V15.504H14.912V17.28H11.344V22H9.104V10.832H16ZM21.6444 22.144C20.791 22.144 20.023 21.9573 19.3404 21.584C18.6577 21.2 18.119 20.6613 17.7244 19.968C17.3404 19.2747 17.1484 18.4747 17.1484 17.568C17.1484 16.6613 17.3457 15.8613 17.7404 15.168C18.1457 14.4747 18.695 13.9413 19.3884 13.568C20.0817 13.184 20.855 12.992 21.7084 12.992C22.5617 12.992 23.335 13.184 24.0284 13.568C24.7217 13.9413 25.2657 14.4747 25.6604 15.168C26.0657 15.8613 26.2684 16.6613 26.2684 17.568C26.2684 18.4747 26.0604 19.2747 25.6444 19.968C25.239 20.6613 24.6844 21.2 23.9804 21.584C23.287 21.9573 22.5084 22.144 21.6444 22.144ZM21.6444 20.192C22.0497 20.192 22.4284 20.096 22.7804 19.904C23.143 19.7013 23.431 19.4027 23.6444 19.008C23.8577 18.6133 23.9644 18.1333 23.9644 17.568C23.9644 16.7253 23.7404 16.08 23.2924 15.632C22.855 15.1733 22.3164 14.944 21.6764 14.944C21.0364 14.944 20.4977 15.1733 20.0604 15.632C19.6337 16.08 19.4204 16.7253 19.4204 17.568C19.4204 18.4107 19.6284 19.0613 20.0444 19.52C20.471 19.968 21.0044 20.192 21.6444 20.192ZM30.2715 10.16V22H28.0315V10.16H30.2715ZM34.8446 10.16V22H32.6046V10.16H34.8446ZM41.1137 22.144C40.2604 22.144 39.4924 21.9573 38.8097 21.584C38.1271 21.2 37.5884 20.6613 37.1937 19.968C36.8097 19.2747 36.6177 18.4747 36.6177 17.568C36.6177 16.6613 36.8151 15.8613 37.2097 15.168C37.6151 14.4747 38.1644 13.9413 38.8577 13.568C39.5511 13.184 40.3244 12.992 41.1777 12.992C42.0311 12.992 42.8044 13.184 43.4977 13.568C44.1911 13.9413 44.7351 14.4747 45.1298 15.168C45.5351 15.8613 45.7378 16.6613 45.7378 17.568C45.7378 18.4747 45.5297 19.2747 45.1137 19.968C44.7084 20.6613 44.1537 21.2 43.4497 21.584C42.7564 21.9573 41.9777 22.144 41.1137 22.144ZM41.1137 20.192C41.5191 20.192 41.8977 20.096 42.2497 19.904C42.6124 19.7013 42.9004 19.4027 43.1137 19.008C43.3271 18.6133 43.4337 18.1333 43.4337 17.568C43.4337 16.7253 43.2097 16.08 42.7617 15.632C42.3244 15.1733 41.7857 14.944 41.1457 14.944C40.5057 14.944 39.9671 15.1733 39.5297 15.632C39.1031 16.08 38.8897 16.7253 38.8897 17.568C38.8897 18.4107 39.0977 19.0613 39.5137 19.52C39.9404 19.968 40.4737 20.192 41.1137 20.192ZM59.7889 13.136L57.1969 22H54.7809L53.1649 15.808L51.5489 22H49.1169L46.5089 13.136H48.7809L50.3489 19.888L52.0449 13.136H54.4129L56.0769 19.872L57.6449 13.136H59.7889ZM62.2569 12.08C61.8622 12.08 61.5315 11.9573 61.2649 11.712C61.0089 11.456 60.8809 11.1413 60.8809 10.768C60.8809 10.3947 61.0089 10.0853 61.2649 9.84C61.5315 9.584 61.8622 9.456 62.2569 9.456C62.6515 9.456 62.9769 9.584 63.2329 9.84C63.4995 10.0853 63.6329 10.3947 63.6329 10.768C63.6329 11.1413 63.4995 11.456 63.2329 11.712C62.9769 11.9573 62.6515 12.08 62.2569 12.08ZM63.3609 13.136V22H61.1209V13.136H63.3609ZM70.606 13.008C71.662 13.008 72.5153 13.344 73.166 14.016C73.8167 14.6773 74.142 15.6053 74.142 16.8V22H71.902V17.104C71.902 16.4 71.726 15.8613 71.374 15.488C71.022 15.104 70.542 14.912 69.934 14.912C69.3153 14.912 68.8247 15.104 68.462 15.488C68.11 15.8613 67.934 16.4 67.934 17.104V22H65.694V13.136H67.934V14.24C68.2327 13.856 68.6113 13.5573 69.07 13.344C69.5393 13.12 70.0513 13.008 70.606 13.008ZM79.8641 12.992C80.5255 12.992 81.1068 13.1253 81.6081 13.392C82.1095 13.648 82.5041 13.984 82.7921 14.4V13.136H85.0481V22.064C85.0481 22.8853 84.8828 23.616 84.5521 24.256C84.2215 24.9067 83.7255 25.4187 83.0641 25.792C82.4028 26.176 81.6028 26.368 80.6641 26.368C79.4055 26.368 78.3708 26.0747 77.5601 25.488C76.7601 24.9013 76.3068 24.1013 76.2001 23.088H78.4241C78.5415 23.4933 78.7921 23.8133 79.1761 24.048C79.5708 24.2933 80.0455 24.416 80.6001 24.416C81.2508 24.416 81.7788 24.2187 82.1841 23.824C82.5895 23.44 82.7921 22.8533 82.7921 22.064V20.688C82.5041 21.104 82.1041 21.4507 81.5921 21.728C81.0908 22.0053 80.5148 22.144 79.8641 22.144C79.1175 22.144 78.4348 21.952 77.8161 21.568C77.1975 21.184 76.7068 20.6453 76.3441 19.952C75.9921 19.248 75.8161 18.4427 75.8161 17.536C75.8161 16.64 75.9921 15.8453 76.3441 15.152C76.7068 14.4587 77.1921 13.9253 77.8001 13.552C78.4188 13.1787 79.1068 12.992 79.8641 12.992ZM82.7921 17.568C82.7921 17.024 82.6855 16.56 82.4721 16.176C82.2588 15.7813 81.9708 15.4827 81.6081 15.28C81.2455 15.0667 80.8561 14.96 80.4401 14.96C80.0241 14.96 79.6401 15.0613 79.2881 15.264C78.9361 15.4667 78.6481 15.7653 78.4241 16.16C78.2108 16.544 78.1041 17.0027 78.1041 17.536C78.1041 18.0693 78.2108 18.5387 78.4241 18.944C78.6481 19.3387 78.9361 19.6427 79.2881 19.856C79.6508 20.0693 80.0348 20.176 80.4401 20.176C80.8561 20.176 81.2455 20.0747 81.6081 19.872C81.9708 19.6587 82.2588 19.36 82.4721 18.976C82.6855 18.5813 82.7921 18.112 82.7921 17.568Z" fill="white"/>
</svg>
