<svg width="95" height="32" viewBox="0 0 95 32" fill="none" xmlns="http://www.w3.org/2000/svg">
<rect x="0.5" y="0.5" width="94" height="31" rx="5.5" stroke="#1877F2"/>
<path d="M20 9V23" stroke="#1877F2" stroke-width="2" stroke-linecap="round" stroke-linejoin="round"/>
<path d="M13 16H27" stroke="#1877F2" stroke-width="2" stroke-linecap="round" stroke-linejoin="round"/>
<path d="M44 10.832V12.64H39.344V15.504H42.912V17.28H39.344V22H37.104V10.832H44ZM49.6444 22.144C48.791 22.144 48.023 21.9573 47.3404 21.584C46.6577 21.2 46.119 20.6613 45.7244 19.968C45.3404 19.2747 45.1484 18.4747 45.1484 17.568C45.1484 16.6613 45.3457 15.8613 45.7404 15.168C46.1457 14.4747 46.695 13.9413 47.3884 13.568C48.0817 13.184 48.855 12.992 49.7084 12.992C50.5617 12.992 51.335 13.184 52.0284 13.568C52.7217 13.9413 53.2657 14.4747 53.6604 15.168C54.0657 15.8613 54.2684 16.6613 54.2684 17.568C54.2684 18.4747 54.0604 19.2747 53.6444 19.968C53.239 20.6613 52.6844 21.2 51.9804 21.584C51.287 21.9573 50.5084 22.144 49.6444 22.144ZM49.6444 20.192C50.0497 20.192 50.4284 20.096 50.7804 19.904C51.143 19.7013 51.431 19.4027 51.6444 19.008C51.8577 18.6133 51.9644 18.1333 51.9644 17.568C51.9644 16.7253 51.7404 16.08 51.2924 15.632C50.855 15.1733 50.3164 14.944 49.6764 14.944C49.0364 14.944 48.4977 15.1733 48.0604 15.632C47.6337 16.08 47.4204 16.7253 47.4204 17.568C47.4204 18.4107 47.6284 19.0613 48.0444 19.52C48.471 19.968 49.0044 20.192 49.6444 20.192ZM58.2715 10.16V22H56.0315V10.16H58.2715ZM62.8446 10.16V22H60.6046V10.16H62.8446ZM69.1137 22.144C68.2604 22.144 67.4924 21.9573 66.8097 21.584C66.1271 21.2 65.5884 20.6613 65.1937 19.968C64.8097 19.2747 64.6177 18.4747 64.6177 17.568C64.6177 16.6613 64.8151 15.8613 65.2097 15.168C65.6151 14.4747 66.1644 13.9413 66.8577 13.568C67.5511 13.184 68.3244 12.992 69.1777 12.992C70.0311 12.992 70.8044 13.184 71.4977 13.568C72.1911 13.9413 72.7351 14.4747 73.1298 15.168C73.5351 15.8613 73.7378 16.6613 73.7378 17.568C73.7378 18.4747 73.5297 19.2747 73.1137 19.968C72.7084 20.6613 72.1537 21.2 71.4497 21.584C70.7564 21.9573 69.9777 22.144 69.1137 22.144ZM69.1137 20.192C69.5191 20.192 69.8977 20.096 70.2497 19.904C70.6124 19.7013 70.9004 19.4027 71.1137 19.008C71.3271 18.6133 71.4337 18.1333 71.4337 17.568C71.4337 16.7253 71.2097 16.08 70.7617 15.632C70.3244 15.1733 69.7857 14.944 69.1457 14.944C68.5057 14.944 67.9671 15.1733 67.5297 15.632C67.1031 16.08 66.8897 16.7253 66.8897 17.568C66.8897 18.4107 67.0977 19.0613 67.5137 19.52C67.9404 19.968 68.4737 20.192 69.1137 20.192ZM87.7889 13.136L85.1969 22H82.7809L81.1649 15.808L79.5489 22H77.1169L74.5089 13.136H76.7809L78.3489 19.888L80.0449 13.136H82.4129L84.0769 19.872L85.6449 13.136H87.7889Z" fill="#1877F2"/>
</svg>
