<svg width="24" height="25" viewBox="0 0 24 25" fill="none" xmlns="http://www.w3.org/2000/svg">
<g clip-path="url(#clip0_1024_2707)">
<path d="M13 19.5003H19V10.4783L12 5.03427L5 10.4783V19.5003H11V13.5003H13V19.5003ZM21 20.5003C21 20.7655 20.8946 21.0198 20.7071 21.2074C20.5196 21.3949 20.2652 21.5003 20 21.5003H4C3.73478 21.5003 3.48043 21.3949 3.29289 21.2074C3.10536 21.0198 3 20.7655 3 20.5003V9.99027C2.99989 9.83788 3.03462 9.68749 3.10152 9.55057C3.16841 9.41365 3.26572 9.29384 3.386 9.20027L11.386 2.97827C11.5615 2.84172 11.7776 2.76758 12 2.76758C12.2224 2.76758 12.4385 2.84172 12.614 2.97827L20.614 9.20027C20.7343 9.29384 20.8316 9.41365 20.8985 9.55057C20.9654 9.68749 21.0001 9.83788 21 9.99027V20.5003Z" fill="#4E4B66"/>
</g>
<defs>
<clipPath id="clip0_1024_2707">
<rect width="24" height="24" fill="white" transform="translate(0 0.5)"/>
</clipPath>
</defs>
</svg>
