<svg width="79" height="34" viewBox="0 0 79 34" fill="none" xmlns="http://www.w3.org/2000/svg">
<rect x="0.5" width="78" height="34" rx="6" fill="#1877F2"/>
<path d="M18.46 23.112C17.6813 23.112 16.9773 22.9787 16.348 22.712C15.7293 22.4453 15.2387 22.0613 14.876 21.56C14.5133 21.0587 14.3267 20.4667 14.316 19.784H16.716C16.748 20.2427 16.908 20.6053 17.196 20.872C17.4947 21.1387 17.9 21.272 18.412 21.272C18.9347 21.272 19.3453 21.1493 19.644 20.904C19.9427 20.648 20.092 20.3173 20.092 19.912C20.092 19.5813 19.9907 19.3093 19.788 19.096C19.5853 18.8827 19.3293 18.7173 19.02 18.6C18.7213 18.472 18.3053 18.3333 17.772 18.184C17.0467 17.9707 16.4547 17.7627 15.996 17.56C15.548 17.3467 15.1587 17.032 14.828 16.616C14.508 16.1893 14.348 15.624 14.348 14.92C14.348 14.2587 14.5133 13.6827 14.844 13.192C15.1747 12.7013 15.6387 12.328 16.236 12.072C16.8333 11.8053 17.516 11.672 18.284 11.672C19.436 11.672 20.3693 11.9547 21.084 12.52C21.8093 13.0747 22.2093 13.8533 22.284 14.856H19.82C19.7987 14.472 19.6333 14.1573 19.324 13.912C19.0253 13.656 18.6253 13.528 18.124 13.528C17.6867 13.528 17.3347 13.64 17.068 13.864C16.812 14.088 16.684 14.4133 16.684 14.84C16.684 15.1387 16.78 15.3893 16.972 15.592C17.1747 15.784 17.42 15.944 17.708 16.072C18.0067 16.1893 18.4227 16.328 18.956 16.488C19.6813 16.7013 20.2733 16.9147 20.732 17.128C21.1907 17.3413 21.5853 17.6613 21.916 18.088C22.2467 18.5147 22.412 19.0747 22.412 19.768C22.412 20.3653 22.2573 20.92 21.948 21.432C21.6387 21.944 21.1853 22.3547 20.588 22.664C19.9907 22.9627 19.2813 23.112 18.46 23.112ZM23.898 18.536C23.898 17.64 24.074 16.8453 24.426 16.152C24.7887 15.4587 25.274 14.9253 25.882 14.552C26.5007 14.1787 27.1887 13.992 27.946 13.992C28.6073 13.992 29.1833 14.1253 29.674 14.392C30.1753 14.6587 30.5753 14.9947 30.874 15.4V14.136H33.13V23H30.874V21.704C30.586 22.12 30.186 22.4667 29.674 22.744C29.1727 23.0107 28.5913 23.144 27.93 23.144C27.1833 23.144 26.5007 22.952 25.882 22.568C25.274 22.184 24.7887 21.6453 24.426 20.952C24.074 20.248 23.898 19.4427 23.898 18.536ZM30.874 18.568C30.874 18.024 30.7673 17.56 30.554 17.176C30.3407 16.7813 30.0527 16.4827 29.69 16.28C29.3273 16.0667 28.938 15.96 28.522 15.96C28.106 15.96 27.722 16.0613 27.37 16.264C27.018 16.4667 26.73 16.7653 26.506 17.16C26.2927 17.544 26.186 18.0027 26.186 18.536C26.186 19.0693 26.2927 19.5387 26.506 19.944C26.73 20.3387 27.018 20.6427 27.37 20.856C27.7327 21.0693 28.1167 21.176 28.522 21.176C28.938 21.176 29.3273 21.0747 29.69 20.872C30.0527 20.6587 30.3407 20.36 30.554 19.976C30.7673 19.5813 30.874 19.112 30.874 18.568ZM39.1337 20.936L41.3738 14.136H43.7578L40.4777 23H37.7578L34.4937 14.136H36.8937L39.1337 20.936ZM53.3759 18.376C53.3759 18.696 53.3545 18.984 53.3119 19.24H46.8319C46.8852 19.88 47.1092 20.3813 47.5039 20.744C47.8985 21.1067 48.3839 21.288 48.9599 21.288C49.7919 21.288 50.3839 20.9307 50.7359 20.216H53.1519C52.8959 21.0693 52.4052 21.7733 51.6799 22.328C50.9545 22.872 50.0639 23.144 49.0079 23.144C48.1545 23.144 47.3865 22.9573 46.7039 22.584C46.0319 22.2 45.5039 21.6613 45.1199 20.968C44.7465 20.2747 44.5599 19.4747 44.5599 18.568C44.5599 17.6507 44.7465 16.8453 45.1199 16.152C45.4932 15.4587 46.0159 14.9253 46.6879 14.552C47.3599 14.1787 48.1332 13.992 49.0079 13.992C49.8505 13.992 50.6025 14.1733 51.2639 14.536C51.9359 14.8987 52.4532 15.416 52.8159 16.088C53.1892 16.7493 53.3759 17.512 53.3759 18.376ZM51.0559 17.736C51.0452 17.16 50.8372 16.7013 50.4319 16.36C50.0265 16.008 49.5305 15.832 48.9439 15.832C48.3892 15.832 47.9199 16.0027 47.5359 16.344C47.1625 16.6747 46.9332 17.1387 46.8479 17.736H51.0559ZM54.5549 18.536C54.5549 17.64 54.7309 16.8453 55.0829 16.152C55.4455 15.4587 55.9362 14.9253 56.5549 14.552C57.1735 14.1787 57.8615 13.992 58.6189 13.992C59.1949 13.992 59.7442 14.12 60.2669 14.376C60.7895 14.6213 61.2055 14.952 61.5149 15.368V11.16H63.7869V23H61.5149V21.688C61.2375 22.1253 60.8482 22.4773 60.3469 22.744C59.8455 23.0107 59.2642 23.144 58.6029 23.144C57.8562 23.144 57.1735 22.952 56.5549 22.568C55.9362 22.184 55.4455 21.6453 55.0829 20.952C54.7309 20.248 54.5549 19.4427 54.5549 18.536ZM61.5309 18.568C61.5309 18.024 61.4242 17.56 61.2109 17.176C60.9975 16.7813 60.7095 16.4827 60.3469 16.28C59.9842 16.0667 59.5949 15.96 59.1789 15.96C58.7629 15.96 58.3789 16.0613 58.0269 16.264C57.6749 16.4667 57.3869 16.7653 57.1629 17.16C56.9495 17.544 56.8429 18.0027 56.8429 18.536C56.8429 19.0693 56.9495 19.5387 57.1629 19.944C57.3869 20.3387 57.6749 20.6427 58.0269 20.856C58.3895 21.0693 58.7735 21.176 59.1789 21.176C59.5949 21.176 59.9842 21.0747 60.3469 20.872C60.7095 20.6587 60.9975 20.36 61.2109 19.976C61.4242 19.5813 61.5309 19.112 61.5309 18.568Z" fill="white"/>
</svg>
