<svg width="79" height="34" viewBox="0 0 79 34" fill="none" xmlns="http://www.w3.org/2000/svg">
<rect x="1" y="0.5" width="77" height="33" rx="5.5" stroke="#1877F2"/>
<path d="M24.46 23.112C23.6813 23.112 22.9773 22.9787 22.348 22.712C21.7293 22.4453 21.2387 22.0613 20.876 21.56C20.5133 21.0587 20.3267 20.4667 20.316 19.784H22.716C22.748 20.2427 22.908 20.6053 23.196 20.872C23.4947 21.1387 23.9 21.272 24.412 21.272C24.9347 21.272 25.3453 21.1493 25.644 20.904C25.9427 20.648 26.092 20.3173 26.092 19.912C26.092 19.5813 25.9907 19.3093 25.788 19.096C25.5853 18.8827 25.3293 18.7173 25.02 18.6C24.7213 18.472 24.3053 18.3333 23.772 18.184C23.0467 17.9707 22.4547 17.7627 21.996 17.56C21.548 17.3467 21.1587 17.032 20.828 16.616C20.508 16.1893 20.348 15.624 20.348 14.92C20.348 14.2587 20.5133 13.6827 20.844 13.192C21.1747 12.7013 21.6387 12.328 22.236 12.072C22.8333 11.8053 23.516 11.672 24.284 11.672C25.436 11.672 26.3693 11.9547 27.084 12.52C27.8093 13.0747 28.2093 13.8533 28.284 14.856H25.82C25.7987 14.472 25.6333 14.1573 25.324 13.912C25.0253 13.656 24.6253 13.528 24.124 13.528C23.6867 13.528 23.3347 13.64 23.068 13.864C22.812 14.088 22.684 14.4133 22.684 14.84C22.684 15.1387 22.78 15.3893 22.972 15.592C23.1747 15.784 23.42 15.944 23.708 16.072C24.0067 16.1893 24.4227 16.328 24.956 16.488C25.6813 16.7013 26.2733 16.9147 26.732 17.128C27.1907 17.3413 27.5853 17.6613 27.916 18.088C28.2467 18.5147 28.412 19.0747 28.412 19.768C28.412 20.3653 28.2573 20.92 27.948 21.432C27.6387 21.944 27.1853 22.3547 26.588 22.664C25.9907 22.9627 25.2813 23.112 24.46 23.112ZM29.898 18.536C29.898 17.64 30.074 16.8453 30.426 16.152C30.7887 15.4587 31.274 14.9253 31.882 14.552C32.5007 14.1787 33.1887 13.992 33.946 13.992C34.6073 13.992 35.1833 14.1253 35.674 14.392C36.1753 14.6587 36.5753 14.9947 36.874 15.4V14.136H39.13V23H36.874V21.704C36.586 22.12 36.186 22.4667 35.674 22.744C35.1727 23.0107 34.5913 23.144 33.93 23.144C33.1833 23.144 32.5007 22.952 31.882 22.568C31.274 22.184 30.7887 21.6453 30.426 20.952C30.074 20.248 29.898 19.4427 29.898 18.536ZM36.874 18.568C36.874 18.024 36.7673 17.56 36.554 17.176C36.3407 16.7813 36.0527 16.4827 35.69 16.28C35.3273 16.0667 34.938 15.96 34.522 15.96C34.106 15.96 33.722 16.0613 33.37 16.264C33.018 16.4667 32.73 16.7653 32.506 17.16C32.2927 17.544 32.186 18.0027 32.186 18.536C32.186 19.0693 32.2927 19.5387 32.506 19.944C32.73 20.3387 33.018 20.6427 33.37 20.856C33.7327 21.0693 34.1167 21.176 34.522 21.176C34.938 21.176 35.3273 21.0747 35.69 20.872C36.0527 20.6587 36.3407 20.36 36.554 19.976C36.7673 19.5813 36.874 19.112 36.874 18.568ZM45.1337 20.936L47.3738 14.136H49.7578L46.4777 23H43.7578L40.4937 14.136H42.8937L45.1337 20.936ZM59.3759 18.376C59.3759 18.696 59.3545 18.984 59.3119 19.24H52.8319C52.8852 19.88 53.1092 20.3813 53.5039 20.744C53.8985 21.1067 54.3839 21.288 54.9599 21.288C55.7919 21.288 56.3839 20.9307 56.7359 20.216H59.1519C58.8959 21.0693 58.4052 21.7733 57.6799 22.328C56.9545 22.872 56.0639 23.144 55.0079 23.144C54.1545 23.144 53.3865 22.9573 52.7039 22.584C52.0319 22.2 51.5039 21.6613 51.1199 20.968C50.7465 20.2747 50.5599 19.4747 50.5599 18.568C50.5599 17.6507 50.7465 16.8453 51.1199 16.152C51.4932 15.4587 52.0159 14.9253 52.6879 14.552C53.3599 14.1787 54.1332 13.992 55.0079 13.992C55.8505 13.992 56.6025 14.1733 57.2639 14.536C57.9359 14.8987 58.4532 15.416 58.8159 16.088C59.1892 16.7493 59.3759 17.512 59.3759 18.376ZM57.0559 17.736C57.0452 17.16 56.8372 16.7013 56.4319 16.36C56.0265 16.008 55.5305 15.832 54.9439 15.832C54.3892 15.832 53.9199 16.0027 53.5359 16.344C53.1625 16.6747 52.9332 17.1387 52.8479 17.736H57.0559Z" fill="#1877F2"/>
</svg>
