<svg width="30" height="30" viewBox="0 0 30 30" fill="none" xmlns="http://www.w3.org/2000/svg">
<rect width="30" height="30" rx="15" fill="#1877F2"/>
<path d="M7.00001 10.3684C7.00001 9.90358 7.36401 9.52632 7.79361 9.52632H22.2064C22.6448 9.52632 23 9.90105 23 10.3684V22.1579C23 22.6227 22.636 23 22.2064 23H7.79361C7.68892 22.9998 7.58529 22.9778 7.48868 22.9353C7.39208 22.8928 7.30439 22.8307 7.23065 22.7525C7.15692 22.6742 7.09859 22.5814 7.05901 22.4794C7.01943 22.3774 6.99938 22.2681 7.00001 22.1579V10.3684ZM8.60001 11.2105V21.3158H21.4V11.2105H8.60001ZM16.6 18.7895C17.2365 18.7895 17.847 18.5233 18.2971 18.0495C18.7471 17.5758 19 16.9332 19 16.2632C19 15.5931 18.7471 14.9506 18.2971 14.4768C17.847 14.003 17.2365 13.7368 16.6 13.7368C15.9635 13.7368 15.353 14.003 14.903 14.4768C14.4529 14.9506 14.2 15.5931 14.2 16.2632C14.2 16.9332 14.4529 17.5758 14.903 18.0495C15.353 18.5233 15.9635 18.7895 16.6 18.7895ZM16.6 20.4737C15.5391 20.4737 14.5217 20.0301 13.7716 19.2404C13.0214 18.4508 12.6 17.3799 12.6 16.2632C12.6 15.1465 13.0214 14.0755 13.7716 13.2859C14.5217 12.4962 15.5391 12.0526 16.6 12.0526C17.6609 12.0526 18.6783 12.4962 19.4284 13.2859C20.1786 14.0755 20.6 15.1465 20.6 16.2632C20.6 17.3799 20.1786 18.4508 19.4284 19.2404C18.6783 20.0301 17.6609 20.4737 16.6 20.4737ZM8.60001 7H13.4V8.68421H8.60001V7Z" fill="white"/>
</svg>
